<?xml version="1.0" encoding="UTF-8"?>
<svg id="Layer_1" xmlns="http://www.w3.org/2000/svg" xmlns:xlink="http://www.w3.org/1999/xlink" version="1.1" viewBox="150 242 1700 560">
  <!-- Generator: Adobe Illustrator 30.3.0, SVG Export Plug-In . SVG Version: 2.1.3 Build 182)  -->
  <defs>
    <style>
      .st0 {
        fill: none;
      }

      .st1 {
        fill: #00447c;
      }

      .st2 {
        fill: url(#linear-gradient);
      }

      .st3 {
        clip-path: url(#clippath-1);
      }

      .st4 {
        fill: #00b6bd;
      }

      .st5 {
        clip-path: url(#clippath);
      }
    </style>
    <clipPath id="clippath">
      <path class="st0" d="M344.9,281c-.9,7.7-.9,12.3-3.3,19.5-2,6.2-3.6,9.6-7.1,15-3.8,4-5.6,6.7-9.9,5.8-2.5-.6-4.1-1.7-5.4-4-3.7-5.4-19.6-45.4-21.8-47.2,0,2.9,12.6,47,13.7,58.7,1,9.4-.6,16.5-1.5,25.9l-3.4,16.1c-2.4.9-8.1-9.8-13.1-17.3-4.3-6.5-6.6-10.3-10.4-17.3,1.1-5,1.9-10.9,1.4-19-.5-8.1,11.4-17.4,11-20.1-.1-.9-3.3,1.2-6.4,3.3-3.2,2.1-6.4,4.3-6.6,3.3-.6-2.5-1.3-5-2.2-7.5-5.6-16.4-20-29.1-25.4-32.5,3.1,7.7,12.7,16.8,16.5,30.1,3.8,13.2,5.5,26.6,2,29.3-4.4,3.5-15.4-1.1-24.5-6.7-13.1-8.1-17.1-19-21.2-19.1-4.1,0,9.1,14,10.9,22,1.8,8-27,2.9-29.5,2.5-4.4-.5-5.4,1.8-1.9,3,5.3,1.8,14.9,3.5,20.2,4.2,17.5,2.3,32.8,1.9,46.9,15.5,11.8,11.4,16,21.9,18.5,38.5,1.4,8.9-10.7,5.8-33-7.8-8-4.6-18.1-13.1-19.5-28-1.7-4-3.8,11.2-1.2,17,.9,2-5,.6-11.8-.9-5.7-1.2-12-2.4-15.6-1.6-4.7,1.1,23.5,4,36.5,15.1,6.9,5.9,29.7,22.7,38.4,30.7,2.4,2.3,1.1,8.7-2.6,9.9-4.6,1.4-12.8.7-21.4-.4-15.5-2.1-22.2-9.7-29.3-16.1-7.1-6.3-16.4-22.6-16.4-22.6,0,5.2.7,12.9,3.9,18.3,2.8,4.7,4.7,7.3,8.2,11.5,0,0-28.6-7-36.2-7,1.1,2.9,18.8,6.8,27.2,11.6,10,5.7,43.7,22.9,42.7,25.8-2.3,6-30.6,4-40.4,5.2-10,1.2-25.8,2.9-26,6.2-.1,2,5.5,1.4,12,.9,4.2-.4,8.6-.7,12.1-.4,17.1,1.6,28.9,1.7,43.6,5.7,10.4,2.8,22.8,10.7,25.1,15.6,2.3,4.7,4.8,9.2,4.4,23.7l-.9,35.7c-111.2,1.4-162.7,10.6-162.7,10.6,0,0,51.4,9.2,162.7,10.6l.9,35.7c.5,14.5-2.1,18.9-4.4,23.7-2.3,4.9-14.8,12.7-25.1,15.6-14.7,4-26.6,4.1-43.6,5.7-3.5.3-8,0-12.1-.4-6.4-.5-12.1-1.1-12,.9.2,3.3,16,5,26,6.2,9.8,1.1,38.2-.8,40.4,5.2,1.1,2.9-32.7,20.1-42.7,25.8-8.4,4.8-26.1,8.7-27.2,11.6,7.6,0,36.2-7,36.2-7-3.5,4.2-5.3,6.8-8.2,11.5-3.2,5.4-3.9,13.1-3.9,18.3,0,0,9.3-16.3,16.4-22.6,7.1-6.3,13.8-14,29.3-16.1,8.6-1.2,16.8-1.9,21.4-.4,3.7,1.2,5,7.6,2.6,9.9-8.7,8-31.4,24.8-38.4,30.7-13,11.1-41.2,14-36.5,15.1,3.6.8,10-.4,15.6-1.6,6.8-1.5,12.7-2.9,11.8-.9-2.6,5.8-.5,21,1.2,17,1.4-14.8,11.4-23.4,19.5-28,22.3-13.6,34.3-16.8,33-7.8-2.5,16.6-6.7,27.2-18.5,38.5-14.2,13.6-29.4,13.2-46.9,15.5-5.3.7-14.9,2.4-20.2,4.2-3.5,1.2-2.6,3.5,1.9,3,2.5-.4,31.3-5.5,29.5,2.5-1.8,8-15,22-10.9,22,4.1,0,8.2-11,21.2-19.1,9.1-5.6,20.1-10.2,24.5-6.7,3.4,2.7,1.7,16.1-2,29.3-3.8,13.2-13.4,22.3-16.5,30.1,5.4-3.4,19.9-16.1,25.4-32.5.9-2.6,1.6-5.1,2.2-7.5.2-1,3.4,1.2,6.6,3.3,3.1,2.1,6.3,4.2,6.4,3.3.4-2.7-11.5-12-11-20.1.5-8.1-.3-14-1.4-19,3.7-7,6-10.8,10.4-17.3,5-7.5,10.6-18.1,13.1-17.3l3.4,16.1c.9,9.4,2.5,16.5,1.5,25.9-1.1,11.7-13.7,55.8-13.7,58.7,2.2-1.8,18.2-41.8,21.8-47.2,1.4-2.3,2.9-3.4,5.4-4,4.3-.9,6,1.7,9.9,5.8,3.5,5.4,5.1,8.8,7.1,15,2.4,7.3,2.3,11.9,3.3,19.5,1.3,10.7,1.7,16.8,1.6,27.6,3.3-2.3,7.9-34,2.7-52.4-5.2-18.4-14.3-21.5-18.5-29.9-4.2-8.3,3.5-33.9,4.4-38.5,1.5-7.6,6.2-10.6,10.2-5.3,3.1,4.2,27,43.9,31.3,55.3,4.3,11.5,13.4,47.1,16.1,48.2-.4-7.7-7.1-30.3-8.5-37.9-1.5-8.2-2.5-17.2-2.5-19.6s7.7,6.1,15.7,13.4c8,7.3,16.2,14.6,17.3,13.4-17.5-19-33.2-40.2-42.5-52.9-4.4-6-9.6-17.6-9.5-20.7,0-3,9.7,5.8,13.7,8.9,8.2,6.3,23.8,17.7,24.3,13.1,0,0-30-26.8-38.7-38.1-8.7-11.2-3.3-15.1,7.5-16.9,10.8-1.7,17.3,3.6,26.1,8.8,9.4,5.6,18.6,15.7,26.2,23,8.2,7.8,12.1,12.6,19.1,21.3,3.4-1.3-7.4-17.6-14.5-24.4-6.7-6.3-13.6-14.8-8.7-20.4,2.9-3.3,20.3-2.7,34.2-2.2,9.6.4,17.6.8,18-.1,1.1-2.8-38.8-11.4-58.5-11.6-19.7-.2-44.9-18.2-40.8-24.9,4-6.7,23.4-2.4,56.8,11.2,5.2.5-9.6-9.6-13.9-13,13.4-.5,35.1-10.5,34.6-13.4-21.1,6.7-33,7.2-48.8,2.4-15.8-4.8-43.3-14-43.3-17.1,0-8.6-.3-19.9.8-35.5l1.1-22c106.5-1.7,155.8-10.5,155.8-10.5,0,0-49.3-8.8-155.8-10.5l-1.1-22c-1.1-15.5-.8-26.9-.8-35.5s27.5-12.3,43.3-17.1c15.8-4.8,27.7-4.3,48.8,2.4.6-2.9-21.1-13-34.6-13.4,4.3-3.4,19.1-13.4,13.9-13-33.4,13.6-52.7,17.9-56.8,11.2-4-6.7,21.1-24.8,40.8-24.9,19.7-.2,59.6-8.7,58.5-11.6-.4-.9-8.3-.5-18-.1-13.9.6-31.3,1.1-34.2-2.2-4.9-5.6,2.1-14.2,8.7-20.4,7.1-6.8,18-23.1,14.5-24.4-7,8.7-10.9,13.5-19.1,21.3-7.6,7.3-16.8,17.4-26.2,23-8.8,5.2-15.2,10.6-26.1,8.8-10.8-1.7-16.2-5.6-7.5-16.9,8.7-11.2,38.7-38.1,38.7-38.1-.5-4.6-16.1,6.8-24.3,13.1-4,3.1-13.7,9.4-13.7,6.4,0-3.1,5.1-12.1,9.5-18.2,9.3-12.7,25.1-33.9,42.5-52.9-1.1-1.2-9.3,6.1-17.3,13.4-8,7.3-15.7,14.6-15.7,13.4,0-2.4,1-11.4,2.5-19.6,1.4-7.5,8.1-30.2,8.5-37.9-2.7,1.2-11.8,36.7-16.1,48.2-4.3,11.4-28.2,51.1-31.3,55.3-4,5.3-8.7,2.4-10.2-5.3-.9-4.7-8.6-30.2-4.4-38.5,4.2-8.3,13.3-11.5,18.5-29.9,5.2-18.4.6-50.1-2.7-52.4,0,10.8-.3,16.9-1.6,27.6"/>
    </clipPath>
    <linearGradient id="linear-gradient" x1="0" y1="1079.7" x2="1" y2="1079.7" gradientTransform="translate(-621566.5 829.4) rotate(-90) scale(576)" gradientUnits="userSpaceOnUse">
      <stop offset="0" stop-color="#00b6be"/>
      <stop offset=".3" stop-color="#00b6be"/>
      <stop offset="1" stop-color="#00447c"/>
    </linearGradient>
    <clipPath id="clippath-1">
      <rect class="st0" width="1920" height="1080"/>
    </clipPath>
  </defs>
  <g class="st5">
    <rect class="st2" x="129.5" y="253.4" width="384" height="576"/>
  </g>
  <g class="st3">
    <path class="st4" d="M432.3,440.8c3.7,3.9,9.1,6,14.7,4.9,5.6-1.1,9.9-5,11.8-10-3.7-3.9-9.1-6-14.7-4.9-5.6,1.1-9.9,5-11.8,10M402,370.5c0,4.5,3.7,8.2,8.2,8.2,4.5,0,8.2-3.7,8.2-8.2s-3.7-8.2-8.2-8.2-8.2,3.7-8.2,8.2M190.8,422.7c2,6.1,6.9,11.1,13.5,12.8,6.6,1.7,13.3-.4,18-4.9-2-6.1-6.9-11.1-13.5-12.8-6.6-1.7-13.3.4-18,4.9M209,390.7c.4-5.8-2-11.6-7-15.2-5-3.6-11.3-4.1-16.6-2-.4,5.8,2,11.6,7,15.2,5,3.6,11.3,4.1,16.6,2M226.4,309.2c0-4.2-3.4-7.6-7.6-7.6s-7.6,3.4-7.6,7.6,3.4,7.6,7.6,7.6,7.6-3.4,7.6-7.6M227.7,352.9c.4-5.2-1.8-10.5-6.3-13.7-4.5-3.3-10.1-3.7-15-1.8-.4,5.2,1.8,10.4,6.3,13.7,4.5,3.3,10.1,3.7,15,1.8M242.2,462.4c-4.8-4.3-11.5-6.2-18.1-4.3-6.6,1.9-11.3,7-13.1,13.2,4.8,4.3,11.5,6.2,18.1,4.3,6.6-1.9,11.3-7,13.1-13.2M241.6,396.7c0,4.6,3.8,8.4,8.4,8.4s8.4-3.8,8.4-8.4-3.8-8.4-8.4-8.4-8.4,3.8-8.4,8.4M267.1,308c1-6.4-1.1-13-6.3-17.5-5.2-4.5-12.1-5.7-18.2-3.8-1,6.4,1.1,13,6.3,17.5,5.2,4.5,12.1,5.7,18.2,3.8M276.7,366.3c.4-5.8-2-11.6-7-15.2-5-3.6-11.3-4.1-16.6-2-.4,5.8,2,11.6,7,15.2,5,3.6,11.3,4.1,16.6,2M292.4,279.6c1-4.4-.4-8.8-3.5-11.8-4,1.4-7.3,4.7-8.3,9.1s.4,8.8,3.5,11.8c4-1.4,7.3-4.7,8.3-9.1M305,331.7c1.5-5.2,0-10.6-3.4-14.4-4.9,1.4-9,5.2-10.5,10.4-1.5,5.2,0,10.6,3.4,14.4,4.9-1.4,9-5.2,10.5-10.4M333.2,300.7c3.7-6.1,4.2-13.8.8-20.5-1.2-2.3-2.8-4.1-4.5-5.7h0c0,0,0,0,0,0-3.5-3.2-7.8-5.2-12.4-5.6-3.7,6.1-4.2,13.8-.8,20.5,3.4,6.7,10,10.8,17,11.4M350.9,328.5c-6.1,2.1-11,7.1-12.5,13.8-1.5,6.7.7,13.3,5.2,17.9,6.1-2.1,11-7.1,12.5-13.8,1.5-6.7-.7-13.3-5.2-17.9M362.6,308.7c-4.2,0-7.6,3.4-7.6,7.6s3.4,7.6,7.6,7.6,7.6-3.4,7.6-7.6-3.4-7.6-7.6-7.6M372.5,274c2.5-4.9,2.1-10.5-.6-14.9-5.1.4-9.9,3.4-12.4,8.3-2.5,4.9-2.1,10.5.6,14.9,5.1-.4,9.9-3.4,12.4-8.3M376.8,289.4c-3.6-2.3-8.2-2.7-12.3-.7-4.1,2-6.6,5.9-7,10.1,3.6,2.3,8.2,2.7,12.3.7,4.1-2,6.6-5.9,7-10.1M389.7,380.2c-4.6,1.6-8.2,5.3-9.4,10.3-1.2,5,.5,10,3.9,13.4,4.6-1.6,8.2-5.3,9.4-10.3,1.2-5-.5-10-3.9-13.4M407.6,300.6c3.4-4.3,4-9.9,2.2-14.7-5.1-.5-10.4,1.4-13.7,5.7-3.4,4.3-4,9.9-2.2,14.7,5.1.5,10.4-1.4,13.7-5.7M428.7,331.6c-4.8-4.3-11.5-6.2-18.1-4.3-6.6,1.9-11.3,7-13.1,13.2,4.8,4.3,11.5,6.2,18.1,4.3,6.6-1.9,11.3-7,13.1-13.2M429.2,468.4c0-5-4.1-9.1-9.1-9.1s-9.1,4.1-9.1,9.1,4.1,9.1,9.1,9.1,9.1-4.1,9.1-9.1M453.7,388.7c-3.6-3.2-8.7-4.6-13.6-3.2-4.9,1.4-8.5,5.3-9.8,9.9,3.6,3.2,8.7,4.6,13.6,3.2s8.5-5.3,9.8-9.9"/>
    <path class="st1" d="M1490.8,446.6h29.7v-49.5h33.5v49.5h29.7v-124.8h-29.7v46.5h-33.5v-46.5h-29.7v124.8ZM1438.3,448.9c7.4,0,14.2-1.5,20.5-4.6,6.3-3.1,11.8-7.7,16.5-13.8l-15.6-20.7c-6,7.2-12.8,10.8-20.4,10.8s-13.2-3.2-17.6-9.6c-4.4-6.4-6.6-15.4-6.6-26.9s1.1-13.7,3.4-19.1c2.2-5.4,5.2-9.6,9-12.6,3.7-2.9,7.8-4.4,12.2-4.4s6.8.8,9.7,2.3c2.9,1.5,5.9,3.8,9,6.9l15.6-21.1c-4.4-4.9-9.6-8.8-15.6-11.9-6-3.1-12.4-4.6-19.4-4.6s-18.6,2.6-26.9,7.9c-8.2,5.2-14.9,12.8-19.9,22.8-5,9.9-7.5,21.6-7.5,35s2.4,25.3,7.3,34.9c4.8,9.6,11.3,16.8,19.4,21.6,8.1,4.8,17.1,7.2,26.9,7.2M1322.9,448.9c15.7,0,27.2-5.1,34.7-15.3,7.5-10.2,11.2-25.9,11.2-47.3v-64.5h-28.7v68.4c0,10.9-1.4,18.7-4.1,23.3-2.8,4.7-7.1,7-13.1,7s-10.3-2.3-13-6.9c-2.7-4.6-4-12.4-4-23.4v-68.4h-29.7v64.5c0,21.2,3.8,37,11.5,47.2,7.7,10.2,19.4,15.4,35.2,15.4M1201.2,347.9h10.7c6.1,0,10.6,1.1,13.6,3.2,2.9,2.1,4.4,5.8,4.4,11s-1.5,9.5-4.6,12.3c-3.1,2.8-7.5,4.2-13.4,4.2h-10.7v-30.7ZM1265.2,446.6l-24.4-48.4c5.6-3.5,10.1-8.2,13.3-14.2,3.2-6,4.8-13.3,4.8-21.9,0-14.5-4.1-24.8-12.4-31-8.2-6.2-19.1-9.3-32.6-9.3h-42.5v124.8h29.7v-41.9h11.4l19.4,41.9h33.2ZM1097.7,394.6l1.9-8.6c2.1-8.7,4.4-20.1,6.9-34.2l1-5.4h.7l3.8,18c1.5,7.8,3,15,4.5,21.5l1.9,8.6h-20.7ZM1129.3,446.6h31.4l-34.2-124.8h-35.9l-34.2,124.8h30.4l5.5-26.5h31.4l5.5,26.5ZM994.6,421.3v-26.5h12.1c6,0,10.4,1,13.1,3,2.8,2,4.1,5.2,4.1,9.7,0,9.2-5.8,13.8-17.3,13.8h-12.1ZM994.6,370.6v-23.4h10c4.8,0,8.4.8,10.7,2.5,2.3,1.7,3.5,4.4,3.5,8.3s-1.2,7.1-3.5,9.3c-2.4,2.2-5.9,3.4-10.6,3.4h-10ZM964.8,446.6h43.9c12.9,0,23.5-3.1,31.8-9.2,8.3-6.1,12.4-15.4,12.4-27.6s-1.8-14.1-5.4-19c-3.6-4.9-8.2-8.3-14-10.2v-.8c4.1-1.9,7.5-5.5,10.2-10.7,2.6-5.2,4-10.6,4-16.2,0-11.4-3.8-19.4-11.4-24.1-7.6-4.7-18-7-31.1-7h-40.4v124.8ZM875.7,446.6h29.7v-124.8h-29.7v124.8ZM779.6,446.6h74.3v-27.6h-44.6v-22.3h36.6v-27.6h-36.6v-19.6h42.9v-27.6h-72.6v124.8ZM663.5,446.6h28.3v-36.1c0-8.8-.9-21.3-2.8-37.4l-1-10.2h.7l10.7,27.8,24.9,55.9h30.4v-124.8h-28.3v36.1c0,9,1,22.3,2.9,39.9.5,3.7.7,6.3.9,7.7h-.7l-10.7-28-24.9-55.7h-30.4v124.8ZM587.4,421.3v-26.5h12.1c6,0,10.4,1,13.1,3,2.8,2,4.1,5.2,4.1,9.7,0,9.2-5.8,13.8-17.3,13.8h-12.1ZM587.4,370.6v-23.4h10c4.8,0,8.4.8,10.7,2.5,2.3,1.7,3.5,4.4,3.5,8.3s-1.2,7.1-3.5,9.3c-2.4,2.2-5.9,3.4-10.6,3.4h-10ZM557.7,446.6h43.9c12.9,0,23.5-3.1,31.8-9.2,8.3-6.1,12.4-15.4,12.4-27.6s-1.8-14.1-5.4-19c-3.6-4.9-8.2-8.3-14-10.2v-.8c4.1-1.9,7.5-5.5,10.2-10.7,2.6-5.2,4-10.6,4-16.2,0-11.4-3.8-19.4-11.4-24.1-7.6-4.7-18-7-31.1-7h-40.4v124.8Z"/>
    <path class="st1" d="M1668.8,638.7h26.6v-36.9c0-4.7-.3-10.8-1-18.3-.7-7.5-1.4-14.4-2.2-20.8l-.5-5.4h.7l9,30,13.8,41.3h15.9l13.8-41.3,9.3-30h.7l-.5,5.4c-.8,6.4-1.6,13.3-2.2,20.8-.7,7.5-1,13.6-1,18.3v36.9h27v-124.8h-31.8l-16.2,51.1c-.8,2.6-1.9,6.5-3.3,11.9l-2.6,10h-.7l-2.6-10c-1.4-5.4-2.5-9.3-3.3-11.9l-16.9-51.1h-31.8v124.8ZM1595,586.7l1.9-8.6c2.1-8.7,4.4-20.1,6.9-34.2l1-5.4h.7l3.8,18c1.5,7.8,3,15,4.5,21.5l1.9,8.6h-20.7ZM1626.7,638.7h31.5l-34.2-124.8h-35.9l-34.2,124.8h30.4l5.5-26.5h31.5l5.5,26.5ZM1519.9,576.5h15.9l5.9-40.7,1-28.4h-29.7l1,28.4,5.9,40.7ZM1421,638.7h72.2v-27.6h-42.5v-97.2h-29.7v124.8ZM1268.6,638.7h29.7v-49.5h33.5v49.5h29.7v-124.8h-29.7v46.5h-33.5v-46.5h-29.7v124.8ZM1194.8,586.7l1.9-8.6c2.1-8.7,4.4-20.1,6.9-34.2l1-5.4h.7l3.8,18c1.5,7.8,3,15,4.5,21.5l1.9,8.6h-20.7ZM1226.5,638.7h31.4l-34.2-124.8h-35.9l-34.2,124.8h30.4l5.5-26.5h31.4l5.5,26.5ZM1077.8,638.7h72.2v-27.6h-42.5v-97.2h-29.7v124.8ZM1004.1,586.7l1.9-8.6c2.1-8.7,4.4-20.1,6.9-34.2l1-5.4h.7l3.8,18c1.5,7.8,3,15,4.5,21.5l1.9,8.6h-20.7ZM1035.7,638.7h31.4l-34.2-124.8h-35.9l-34.2,124.8h30.4l5.5-26.5h31.4l5.5,26.5ZM900.9,613.4v-26.5h12.1c6,0,10.4,1,13.1,3,2.8,2,4.1,5.2,4.1,9.7,0,9.2-5.8,13.8-17.3,13.8h-12.1ZM900.9,562.7v-23.4h10c4.8,0,8.4.8,10.7,2.5,2.3,1.7,3.5,4.4,3.5,8.3s-1.2,7.1-3.5,9.3c-2.4,2.2-5.9,3.4-10.6,3.4h-10ZM871.2,638.7h43.9c12.9,0,23.5-3.1,31.8-9.2,8.3-6.1,12.4-15.4,12.4-27.6s-1.8-14.1-5.4-19c-3.6-4.9-8.2-8.3-14-10.2v-.8c4.1-1.9,7.5-5.5,10.2-10.7,2.6-5.2,4-10.6,4-16.2,0-11.4-3.8-19.4-11.4-24.1-7.6-4.7-18-7-31.1-7h-40.4v124.8ZM795.1,613.4v-26.5h12.1c6,0,10.4,1,13.1,3,2.8,2,4.1,5.2,4.1,9.7,0,9.2-5.8,13.8-17.3,13.8h-12.1ZM795.1,562.7v-23.4h10c4.8,0,8.4.8,10.7,2.5,2.3,1.7,3.5,4.4,3.5,8.3s-1.2,7.1-3.5,9.3c-2.4,2.2-5.9,3.4-10.6,3.4h-10ZM765.4,638.7h43.9c12.9,0,23.5-3.1,31.8-9.2,8.3-6.1,12.4-15.4,12.4-27.6s-1.8-14.1-5.4-19c-3.6-4.9-8.2-8.3-14-10.2v-.8c4.1-1.9,7.5-5.5,10.2-10.7,2.6-5.2,4-10.6,4-16.2,0-11.4-3.8-19.4-11.4-24.1-7.6-4.7-18-7-31.1-7h-40.4v124.8ZM691.6,586.7l1.9-8.6c2.1-8.7,4.4-20.1,6.9-34.2l1-5.4h.7l3.8,18c1.5,7.8,3,15,4.5,21.5l1.9,8.6h-20.7ZM723.3,638.7h31.5l-34.2-124.8h-35.9l-34.2,124.8h30.4l5.5-26.5h31.5l5.5,26.5ZM557.7,638.7h29.7v-31.1l10.7-16.9,24.9,48h32.5l-40.1-74.1,33.5-50.7h-32.5l-28.3,46.5h-.7v-46.5h-29.7v124.8Z"/>
    <path class="st1" d="M1526.3,795.7c5.6,0,10.1-1.9,13.5-5.7,3.4-3.8,6.3-9.4,8.6-16.7l20.7-66.4h-11.3l-9.1,32.4-2.5,9.7c-.5,2.2-1.1,4.9-2,7.9h-.5l-1.7-6-3.5-11.6-10.5-32.4h-11.9l22.3,62.2-1.2,4.2c-2.4,7.9-6.3,11.9-11.9,11.9s-2.4-.3-4.1-.9l-2.2,10.1c2.1.9,4.5,1.3,7,1.3M1501.4,771c3.2,0,6.9-.8,11.1-2.3l-2.1-9.6c-2.3,1-4.3,1.5-6.1,1.5-2.9,0-5-1-6.3-2.9-1.3-1.9-2-4.8-2-8.6v-31.9h14.7v-10.4h-14.7v-17.3h-9.7l-1.4,17.3-8.8.6v9.7h8.2v31.9c0,14.6,5.7,21.9,17,21.9M1461.9,695.1c2.1,0,3.8-.7,5.1-2.2,1.3-1.5,2-3.3,2-5.6s-.7-4.1-2-5.5c-1.3-1.5-3.1-2.2-5.1-2.2s-3.8.7-5.1,2.2c-1.3,1.5-2,3.3-2,5.5s.7,4.2,2,5.6c1.3,1.5,3.1,2.2,5.1,2.2M1456.1,769.4h11.6v-62.6h-11.6v62.6ZM1395.5,769.4h11.6v-44.4c2.8-3.1,5.1-5.3,7.1-6.6,2-1.3,4.3-2,6.8-2s5.8,1.2,7.3,3.6c1.5,2.4,2.2,6.3,2.2,11.6v37.8h11.6v-39.4c0-16.5-5.8-24.7-17.3-24.7s-6.8.9-9.7,2.7c-3,1.8-5.9,4.3-8.9,7.6h-.3l-.9-8.7h-9.6v62.6ZM1351.9,771c3.7,0,7-.9,9.8-2.8,2.9-1.9,5.7-4.6,8.5-8.2h.3l.9,9.5h9.6v-62.6h-11.6v43.5c-2.5,3.4-4.7,5.8-6.7,7.3-2,1.5-4.3,2.2-6.9,2.2s-5.8-1.2-7.3-3.6c-1.5-2.4-2.2-6.3-2.2-11.6v-37.8h-11.6v39.4c0,16.5,5.8,24.7,17.3,24.7M1241.8,769.4h11.6v-44.4c4.7-5.7,8.9-8.6,12.8-8.6s5.7,1.2,7.2,3.6c1.5,2.4,2.2,6.3,2.2,11.6v37.8h11.6v-44.4c4.7-5.7,8.9-8.6,12.8-8.6s5.7,1.2,7.2,3.6c1.5,2.4,2.2,6.3,2.2,11.6v37.8h11.6v-39.4c0-8-1.4-14.1-4.3-18.4-2.9-4.2-7.2-6.3-13-6.3s-6.4,1-9.3,2.9c-2.9,2-5.9,4.8-9,8.6-2.6-7.7-7.8-11.5-15.6-11.5s-6.2.9-9,2.8c-2.8,1.8-5.6,4.3-8.4,7.5h-.3l-.9-8.7h-9.6v62.6ZM1148.4,769.4h11.6v-44.4c4.7-5.7,8.9-8.6,12.8-8.6s5.7,1.2,7.2,3.6c1.5,2.4,2.2,6.3,2.2,11.6v37.8h11.6v-44.4c4.7-5.7,8.9-8.6,12.8-8.6s5.7,1.2,7.2,3.6c1.5,2.4,2.2,6.3,2.2,11.6v37.8h11.6v-39.4c0-8-1.4-14.1-4.3-18.4s-7.2-6.3-13-6.3-6.4,1-9.3,2.9c-2.9,2-5.9,4.8-9,8.6-2.6-7.7-7.8-11.5-15.6-11.5s-6.2.9-9,2.8c-2.8,1.8-5.6,4.3-8.4,7.5h-.3l-.9-8.7h-9.6v62.6ZM1110.9,760.3c-4.5,0-8-2-10.6-6.1-2.6-4.1-3.9-9.4-3.9-16.1s1.3-12,4-16.1c2.6-4.1,6.2-6.1,10.5-6.1s7.9,2,10.5,6.1c2.6,4.1,4,9.5,4,16.1s-1.3,12-3.9,16.1c-2.6,4.1-6.1,6.1-10.6,6.1M1110.9,771c4.7,0,9.1-1.3,13.1-4,4.1-2.6,7.3-6.4,9.7-11.4,2.4-4.9,3.6-10.8,3.6-17.4s-1.2-12.6-3.6-17.5c-2.4-4.9-5.6-8.7-9.7-11.4-4-2.6-8.4-4-13.2-4s-9.2,1.3-13.2,4c-4,2.6-7.3,6.4-9.7,11.4-2.4,5-3.6,10.8-3.6,17.5s1.2,12.5,3.6,17.4c2.4,5,5.7,8.7,9.7,11.4,4.1,2.6,8.4,4,13.1,4M1055.7,771c9.4,0,17.3-4.1,23.5-12.2l-6.3-8.2c-4.8,6-10.4,9-16.7,9s-12-2.9-16-8.6c-4-5.8-5.9-13.6-5.9-23.6s.9-12.1,2.8-16.9c1.9-4.8,4.5-8.5,7.8-11.1,3.3-2.6,7.2-3.9,11.6-3.9s10.4,2.5,14.7,7.6l6.3-8.4c-2.5-3.1-5.6-5.6-9.3-7.6-3.6-2-7.7-2.9-12-2.9-6.4,0-12.2,1.8-17.3,5.3-5.2,3.5-9.3,8.6-12.3,15.2-3,6.6-4.5,14.3-4.5,23.2s1.5,16.7,4.4,23.2c2.9,6.5,6.9,11.5,12,14.9,5.1,3.4,10.8,5.1,17.2,5.1M938.7,769.4h11.6v-44.4c2.8-3.1,5.1-5.3,7.1-6.6,2-1.3,4.3-2,6.8-2s5.8,1.2,7.3,3.6c1.5,2.4,2.2,6.3,2.2,11.6v37.8h11.6v-39.4c0-16.5-5.8-24.7-17.3-24.7s-6.7.9-9.6,2.6c-2.9,1.8-5.8,4.2-8.7,7.2l.5-12.4v-24.1h-11.6v90.8ZM899.6,760.7c-2.7,0-4.8-.7-6.5-2.2-1.6-1.5-2.4-3.7-2.4-6.6s1.7-6.7,5.1-9c3.4-2.3,9.2-4,17.3-5.1v15.5c-2.5,2.6-4.8,4.4-6.9,5.6-2.1,1.2-4.3,1.8-6.7,1.8M896.1,771c5.8,0,11.8-2.9,18-8.7h.3l.9,7.2h9.6v-37.6c0-8.5-1.7-15.1-5.1-19.6-3.4-4.6-8.5-6.8-15.3-6.8s-15,2.7-22.7,8.2l4.4,8.7c6.1-4.3,11.5-6.4,16.2-6.4,7.1,0,10.7,4.6,10.8,13.8-11.8,1.5-20.3,4-25.7,7.6-5.4,3.6-8.1,8.8-8.1,15.6s1.5,10,4.6,13.2c3.1,3.3,7.1,4.9,12,4.9M866.7,771c2.5,0,4.6-.4,6.3-1.2l-1.5-9.7c-.7.2-1.4.3-2.1.3s-1.4-.4-2-1.2c-.5-.8-.8-2-.8-3.6v-76.9h-11.6v76.2c0,5.3.9,9.3,2.8,12,1.8,2.7,4.8,4.1,8.9,4.1M816.2,760.7c-2.7,0-4.8-.7-6.5-2.2-1.6-1.5-2.4-3.7-2.4-6.6s1.7-6.7,5.1-9c3.4-2.3,9.2-4,17.3-5.1v15.5c-2.5,2.6-4.8,4.4-6.9,5.6-2.1,1.2-4.3,1.8-6.7,1.8M812.6,771c5.8,0,11.8-2.9,18-8.7h.3l.9,7.2h9.6v-37.6c0-8.5-1.7-15.1-5.1-19.6-3.4-4.6-8.5-6.8-15.3-6.8s-15,2.7-22.7,8.2l4.4,8.7c6.1-4.3,11.5-6.4,16.2-6.4,7.1,0,10.7,4.6,10.8,13.8-11.8,1.5-20.3,4-25.7,7.6-5.4,3.6-8.1,8.8-8.1,15.6s1.5,10,4.6,13.2c3.1,3.3,7.1,4.9,12,4.9M761.9,760.2c-1.9,0-3.9-.5-6-1.4-2.1-.9-4.2-2.4-6.3-4.4v-30.7c4.8-5.1,9.3-7.7,13.5-7.7,8.9,0,13.4,7.1,13.4,21.2s-1.3,12.8-4,16.8c-2.7,4.1-6.2,6.1-10.5,6.1M764.2,771c4.3,0,8.3-1.4,12-4.1,3.7-2.7,6.6-6.7,8.9-11.8,2.2-5.1,3.3-11.1,3.3-18s-1.9-17.4-5.8-23.2c-3.9-5.7-9.4-8.6-16.4-8.6s-5.7.7-8.6,2.2c-2.9,1.5-5.7,3.5-8.3,6l.3-10.8v-24.1h-11.6v90.8h9.2l1-6.5h.3c2.5,2.6,5,4.5,7.7,6,2.7,1.4,5.3,2.1,7.9,2.1M700.1,760.2c-1.9,0-3.9-.5-6-1.4-2.1-.9-4.2-2.4-6.3-4.4v-30.7c4.8-5.1,9.3-7.7,13.5-7.7,8.9,0,13.4,7.1,13.4,21.2s-1.3,12.8-4,16.8c-2.7,4.1-6.2,6.1-10.5,6.1M702.4,771c4.3,0,8.3-1.4,12-4.1,3.7-2.7,6.6-6.7,8.9-11.8,2.2-5.1,3.3-11.1,3.3-18s-1.9-17.4-5.8-23.2c-3.9-5.7-9.4-8.6-16.4-8.6s-5.7.7-8.6,2.2c-2.9,1.5-5.7,3.5-8.3,6l.3-10.8v-24.1h-11.6v90.8h9.2l1-6.5h.3c2.5,2.6,5,4.5,7.7,6,2.7,1.4,5.3,2.1,7.9,2.1M637.1,760.7c-2.7,0-4.8-.7-6.5-2.2-1.6-1.5-2.4-3.7-2.4-6.6s1.7-6.7,5.1-9c3.4-2.3,9.2-4,17.3-5.1v15.5c-2.5,2.6-4.8,4.4-6.9,5.6-2.1,1.2-4.3,1.8-6.7,1.8M633.6,771c5.8,0,11.8-2.9,18-8.7h.3l.9,7.2h9.6v-37.6c0-8.5-1.7-15.1-5.1-19.6-3.4-4.6-8.5-6.8-15.3-6.8s-15,2.7-22.7,8.2l4.4,8.7c6.1-4.3,11.5-6.4,16.2-6.4,7.1,0,10.7,4.6,10.8,13.8-11.8,1.5-20.3,4-25.7,7.6-5.4,3.6-8.1,8.8-8.1,15.6s1.5,10,4.6,13.2c3.1,3.3,7.1,4.9,12,4.9M555.2,769.4h11.8v-25.3l11.8-15.9,21.3,41.2h13l-27.2-51.5,23.4-32.4h-13.1l-28.8,39.8h-.3v-39.8h-11.8v83.8Z"/>
  </g>
</svg>