<?xml version="1.0" encoding="UTF-8"?>
<svg id="Layer_1" xmlns="http://www.w3.org/2000/svg" xmlns:xlink="http://www.w3.org/1999/xlink" version="1.1" viewBox="340 242 1248 610">
  <!-- Generator: Adobe Illustrator 30.3.0, SVG Export Plug-In . SVG Version: 2.1.3 Build 182)  -->
  <defs>
    <style>
      .st0 {
        fill: none;
      }

      .st1 {
        fill: url(#linear-gradient);
      }

      .st2 {
        clip-path: url(#clippath-1);
      }

      .st3 {
        fill: #fff;
      }

      .st4 {
        fill: #00b6bd;
      }

      .st5 {
        clip-path: url(#clippath);
      }
    </style>
    <clipPath id="clippath">
      <path class="st0" d="M1405.6,288.1c-.9,7.7-.9,12.3-3.3,19.5-2,6.2-3.6,9.6-7.1,15-3.8,4-5.6,6.7-9.9,5.8-2.5-.6-4.1-1.7-5.4-4-3.7-5.4-19.6-45.4-21.8-47.2,0,2.9,12.6,47,13.7,58.7,1,9.4-.6,16.5-1.5,25.9l-3.4,16.1c-2.4.9-8.1-9.8-13.1-17.3-4.3-6.5-6.6-10.3-10.4-17.3,1.1-5,1.9-10.9,1.4-19-.5-8.1,11.4-17.4,11-20.1-.1-.9-3.3,1.2-6.4,3.3-3.2,2.1-6.4,4.3-6.6,3.3-.6-2.5-1.3-5-2.2-7.5-5.6-16.4-20-29.1-25.4-32.5,3.1,7.7,12.7,16.8,16.5,30.1,3.8,13.2,5.5,26.6,2,29.3-4.4,3.5-15.4-1.1-24.5-6.7-13.1-8.1-17.1-19-21.2-19.1-4.1,0,9.1,14,10.9,22,1.8,8-27,2.9-29.5,2.5-4.4-.5-5.4,1.8-1.9,3,5.3,1.8,14.9,3.5,20.2,4.2,17.5,2.3,32.8,1.9,46.9,15.5,11.8,11.4,16,21.9,18.5,38.5,1.4,8.9-10.7,5.8-33-7.8-8-4.6-18.1-13.1-19.5-28-1.7-4-3.8,11.2-1.2,17,.9,2-5,.6-11.8-.9-5.7-1.2-12-2.4-15.6-1.6-4.7,1.1,23.5,4,36.5,15.1,6.9,5.9,29.7,22.7,38.4,30.7,2.4,2.3,1.1,8.7-2.6,9.9-4.6,1.4-12.8.7-21.4-.4-15.5-2.1-22.2-9.7-29.3-16.1-7.1-6.3-16.4-22.6-16.4-22.6,0,5.2.7,12.9,3.9,18.3,2.8,4.7,4.7,7.3,8.2,11.5,0,0-28.6-7-36.2-7,1.1,2.9,18.8,6.8,27.2,11.6,10,5.7,43.7,22.9,42.7,25.8-2.3,6-30.6,4-40.4,5.2-10,1.2-25.8,2.9-26,6.2-.1,2,5.5,1.4,12,.9,4.2-.3,8.6-.7,12.1-.4,17.1,1.6,28.9,1.7,43.6,5.7,10.4,2.8,22.8,10.7,25.1,15.6,2.3,4.7,4.8,9.2,4.4,23.7l-.9,35.7c-111.2,1.4-162.7,10.6-162.7,10.6,0,0,51.4,9.2,162.7,10.6l.9,35.7c.5,14.5-2.1,18.9-4.4,23.7-2.3,4.9-14.8,12.7-25.1,15.6-14.7,4-26.6,4.1-43.6,5.7-3.5.3-8,0-12.1-.4-6.4-.5-12.1-1.1-12,.9.2,3.3,16,5,26,6.2,9.8,1.1,38.2-.8,40.4,5.2,1.1,2.9-32.7,20.1-42.7,25.8-8.4,4.8-26.1,8.7-27.2,11.6,7.6,0,36.2-7,36.2-7-3.5,4.2-5.3,6.8-8.2,11.5-3.2,5.4-3.9,13.1-3.9,18.3,0,0,9.3-16.3,16.4-22.6,7.1-6.4,13.8-14,29.3-16.1,8.6-1.2,16.8-1.9,21.4-.4,3.7,1.2,5,7.6,2.6,9.9-8.7,8-31.4,24.8-38.4,30.7-13,11.1-41.2,14-36.5,15.1,3.6.8,10-.4,15.6-1.6,6.8-1.5,12.7-2.9,11.8-.9-2.6,5.8-.5,21,1.2,17,1.4-14.8,11.4-23.4,19.5-28,22.3-13.6,34.3-16.8,33-7.8-2.5,16.6-6.7,27.2-18.5,38.5-14.2,13.6-29.4,13.2-46.9,15.5-5.3.7-14.9,2.4-20.2,4.2-3.5,1.2-2.6,3.5,1.9,3,2.5-.4,31.3-5.5,29.5,2.5-1.8,8-15,22-10.9,22,4.1,0,8.2-11,21.2-19.1,9.1-5.6,20.1-10.2,24.5-6.7,3.4,2.7,1.7,16.1-2,29.3-3.8,13.2-13.4,22.3-16.5,30.1,5.4-3.4,19.9-16.1,25.4-32.5.9-2.6,1.6-5.1,2.2-7.5.2-1,3.4,1.2,6.6,3.3,3.1,2.1,6.3,4.2,6.4,3.3.4-2.7-11.5-12-11-20.1.5-8.1-.3-14-1.4-19,3.7-7,6-10.8,10.4-17.3,5-7.5,10.7-18.1,13.1-17.3l3.4,16.1c.9,9.4,2.5,16.5,1.5,25.9-1.1,11.7-13.7,55.8-13.7,58.7,2.2-1.8,18.2-41.8,21.8-47.2,1.4-2.3,2.9-3.4,5.4-4,4.3-.9,6,1.7,9.9,5.8,3.5,5.4,5.1,8.8,7.1,15,2.4,7.3,2.3,11.9,3.3,19.5,1.3,10.7,1.7,16.8,1.6,27.6,3.3-2.3,7.9-34,2.7-52.4-5.2-18.4-14.3-21.5-18.5-29.9-4.2-8.3,3.5-33.9,4.4-38.5,1.5-7.6,6.2-10.6,10.2-5.3,3.1,4.2,27,43.9,31.3,55.3,4.3,11.5,13.4,47.1,16.1,48.2-.4-7.7-7.1-30.3-8.5-37.9-1.5-8.2-2.5-17.2-2.5-19.6s7.7,6.1,15.7,13.4c8,7.3,16.2,14.6,17.3,13.4-17.5-19-33.2-40.2-42.5-52.9-4.4-6-9.6-17.6-9.5-20.7,0-3,9.7,5.8,13.7,8.9,8.2,6.3,23.8,17.7,24.3,13.1,0,0-30-26.8-38.7-38.1-8.7-11.2-3.3-15.1,7.5-16.9,10.8-1.7,17.3,3.6,26.1,8.8,9.4,5.6,18.6,15.7,26.2,23,8.2,7.8,12.1,12.6,19.1,21.3,3.4-1.3-7.4-17.6-14.5-24.4-6.7-6.3-13.6-14.8-8.7-20.4,2.9-3.3,20.3-2.7,34.2-2.2,9.6.4,17.6.8,18-.1,1.1-2.8-38.8-11.4-58.5-11.6-19.7-.2-44.9-18.2-40.8-24.9,4-6.7,23.4-2.4,56.8,11.2,5.2.5-9.6-9.6-13.9-13,13.4-.5,35.2-10.5,34.6-13.4-21.1,6.7-33,7.2-48.8,2.4-15.8-4.8-43.3-14-43.3-17.1,0-8.6-.3-19.9.8-35.5l1.1-22c106.5-1.7,155.8-10.5,155.8-10.5,0,0-49.3-8.8-155.8-10.5l-1.1-22c-1.1-15.5-.8-26.9-.8-35.5s27.5-12.3,43.3-17.1,27.7-4.3,48.8,2.4c.6-2.9-21.1-13-34.6-13.4,4.3-3.4,19.1-13.4,13.9-13-33.4,13.6-52.7,17.9-56.8,11.2-4-6.7,21.1-24.8,40.8-24.9,19.7-.2,59.6-8.7,58.5-11.6-.4-.9-8.3-.5-18-.1-13.9.6-31.3,1.1-34.2-2.2-4.9-5.6,2.1-14.1,8.7-20.4,7.1-6.8,18-23.1,14.5-24.4-7,8.7-10.9,13.5-19.1,21.3-7.6,7.3-16.8,17.4-26.2,23-8.8,5.2-15.2,10.6-26.1,8.8-10.8-1.7-16.2-5.6-7.5-16.9,8.7-11.2,38.7-38.1,38.7-38.1-.5-4.6-16.1,6.8-24.3,13.1-4,3.1-13.7,9.5-13.7,6.4,0-3.1,5.1-12.1,9.5-18.2,9.3-12.7,25.1-33.9,42.5-52.9-1.1-1.2-9.3,6.1-17.3,13.4-8,7.3-15.7,14.6-15.7,13.4,0-2.4,1-11.4,2.5-19.6,1.4-7.5,8.1-30.2,8.5-37.9-2.7,1.2-11.8,36.7-16.1,48.2-4.3,11.4-28.2,51.1-31.3,55.3-4,5.3-8.7,2.4-10.2-5.3-.9-4.7-8.6-30.2-4.4-38.5,4.2-8.3,13.3-11.5,18.5-29.9,5.2-18.4.6-50.1-2.7-52.4,0,10.8-.3,16.9-1.6,27.6"/>
    </clipPath>
    <linearGradient id="linear-gradient" x1="0" y1="1079.7" x2="1" y2="1079.7" gradientTransform="translate(-620505.8 836.5) rotate(-90) scale(576)" gradientUnits="userSpaceOnUse">
      <stop offset="0" stop-color="#00b0bc"/>
      <stop offset=".3" stop-color="#00b0bc"/>
      <stop offset="1" stop-color="#fff"/>
    </linearGradient>
    <clipPath id="clippath-1">
      <rect class="st0" width="1920" height="1080"/>
    </clipPath>
  </defs>
  <g class="st5">
    <rect class="st1" x="1190.2" y="260.5" width="384" height="576"/>
  </g>
  <g class="st2">
    <path class="st4" d="M1493,447.8c3.7,3.9,9.1,6,14.7,4.9,5.6-1.1,9.9-5,11.8-10-3.7-3.9-9.1-6-14.7-4.9-5.6,1.1-9.9,5-11.8,10M1462.7,377.5c0,4.5,3.7,8.2,8.2,8.2,4.5,0,8.2-3.7,8.2-8.2s-3.7-8.2-8.2-8.2-8.2,3.7-8.2,8.2M1251.4,429.8c2,6.1,6.9,11.1,13.5,12.8,6.6,1.7,13.3-.4,18-4.9-2-6.1-6.9-11.1-13.5-12.8-6.6-1.7-13.3.4-18,4.9M1269.7,397.8c.4-5.8-2-11.6-7-15.2-5-3.6-11.3-4.1-16.6-2-.4,5.8,2,11.6,7,15.2,5,3.6,11.3,4.1,16.6,2M1287.1,316.3c0-4.2-3.4-7.6-7.6-7.6s-7.6,3.4-7.6,7.6,3.4,7.6,7.6,7.6,7.6-3.4,7.6-7.6M1288.4,360c.4-5.2-1.8-10.5-6.3-13.7-4.5-3.3-10.1-3.7-15-1.8-.4,5.2,1.8,10.4,6.3,13.7,4.5,3.3,10.1,3.7,15,1.8M1302.9,469.4c-4.8-4.3-11.5-6.2-18.1-4.3-6.6,1.9-11.3,7-13.1,13.2,4.8,4.3,11.5,6.2,18.1,4.3,6.6-1.9,11.3-7,13.1-13.2M1302.3,403.8c0,4.6,3.8,8.4,8.4,8.4s8.4-3.8,8.4-8.4-3.8-8.4-8.4-8.4-8.4,3.8-8.4,8.4M1327.8,315.1c1-6.4-1.1-13-6.3-17.5-5.2-4.5-12.1-5.7-18.2-3.8-1,6.4,1.1,13,6.3,17.5,5.2,4.5,12.1,5.7,18.2,3.8M1337.4,373.3c.4-5.8-2-11.6-7-15.2-5-3.6-11.3-4.1-16.6-2-.4,5.8,2,11.6,7,15.2,5,3.6,11.3,4.1,16.6,2M1353.1,286.7c1-4.4-.4-8.8-3.5-11.8-4,1.4-7.3,4.7-8.3,9.1s.4,8.8,3.5,11.8c4-1.4,7.3-4.7,8.3-9.1M1365.7,338.7c1.5-5.2,0-10.6-3.4-14.4-4.9,1.4-9,5.2-10.5,10.4-1.5,5.2,0,10.6,3.4,14.4,4.9-1.4,9-5.2,10.5-10.4M1393.9,307.7c3.7-6.1,4.2-13.8.8-20.5-1.2-2.3-2.8-4.1-4.5-5.7h0c0,0,0,0,0,0-3.5-3.2-7.8-5.2-12.4-5.6-3.7,6.1-4.2,13.8-.8,20.5,3.4,6.7,10,10.8,17,11.4M1411.6,335.6c-6.1,2.1-11,7.1-12.5,13.8-1.5,6.7.7,13.3,5.2,17.9,6.1-2.1,11-7.1,12.5-13.8,1.5-6.7-.7-13.3-5.2-17.9M1423.3,315.8c-4.2,0-7.6,3.4-7.6,7.6s3.4,7.6,7.6,7.6,7.6-3.4,7.6-7.6-3.4-7.6-7.6-7.6M1433.2,281.1c2.5-4.9,2.1-10.5-.6-14.9-5.1.4-9.9,3.4-12.4,8.3-2.5,4.9-2.1,10.5.6,14.9,5.1-.4,9.9-3.4,12.4-8.3M1437.5,296.5c-3.6-2.3-8.2-2.7-12.3-.7-4.1,2-6.6,5.9-7,10.1,3.6,2.3,8.2,2.7,12.3.7,4.1-2,6.6-5.9,7-10.1M1450.4,387.2c-4.6,1.6-8.2,5.3-9.4,10.3-1.2,5,.5,10,3.9,13.4,4.6-1.6,8.2-5.3,9.4-10.3,1.2-5-.5-10-3.9-13.4M1468.3,307.7c3.4-4.3,4-9.9,2.2-14.7-5.1-.5-10.4,1.4-13.7,5.7-3.4,4.3-4,9.9-2.2,14.7,5.1.5,10.4-1.4,13.7-5.7M1489.4,338.6c-4.8-4.3-11.5-6.2-18.1-4.3-6.6,1.9-11.3,7-13.1,13.2,4.8,4.3,11.5,6.2,18.1,4.3,6.6-1.9,11.3-7,13.1-13.2M1489.9,475.4c0-5-4.1-9.1-9.1-9.1s-9.1,4.1-9.1,9.1,4.1,9.1,9.1,9.1,9.1-4.1,9.1-9.1M1514.4,395.7c-3.6-3.2-8.7-4.6-13.6-3.2-4.9,1.4-8.5,5.3-9.8,9.9,3.6,3.2,8.7,4.6,13.6,3.2,4.9-1.4,8.5-5.3,9.8-9.9"/>
    <path class="st3" d="M1145.1,413.8v-49.2c0-12.4-2.7-21.6-8.2-27.5-5.5-5.9-12.8-8.8-22-8.8h-44.6v25.7h35.6c5.2,0,7.8,2.9,7.8,8.6v51.1h-43.4v25.7h85.9v-25.7h-11.1ZM1003.8,439.5h54.1v-77.4c0-9.1-1.9-16.6-5.7-22.6s-9.2-9.4-16.2-10.3l-25.4-3.5-3.8,25.3,12.4,1.7c2.5.3,4.4,1.1,5.5,2.5,1.2,1.4,1.7,4,1.7,7.7v50.7h-22.6v25.7ZM958.8,399.2l31.3-5.8.2-12.1v-30.5l-2.1-22.5h-31.3l1.9,22.5v48.4ZM900.1,413.8v-49.2c0-12.4-2.7-21.6-8.2-27.5-5.5-5.9-12.8-8.8-22-8.8h-44.6v25.7h35.6c5.2,0,7.8,2.9,7.8,8.6v51.1h-43.4v25.7h85.9v-25.7h-11.1ZM780.8,439.5h31.5v-74.9c0-12.4-2.7-21.6-8.2-27.5-5.5-5.9-12.8-8.8-22-8.8h-44.4v25.7h35.4c5.2,0,7.8,2.9,7.8,8.6v76.8ZM695,439.5h31.4v-88.7l-2.1-22.5h-31.3l1.9,22.5v88.7ZM646.9,477.9h31.5v-113.3c0-12.4-2.7-21.6-8.2-27.5-5.5-5.9-12.8-8.8-22-8.8h-46.1v25.7h37.2c5.2,0,7.8,2.9,7.8,8.6v115.2Z"/>
    <path class="st3" d="M1101.2,798.3h12.3v-70.4h-10.6l-1.7,8.7v61.7ZM1122.9,772.8c9.6-.3,16.9-4,22-10.9,5.1-6.9,7.9-16.6,8.4-29.2l1.6-22.8.5-9.2h-54v10.5h40.8l-1.7,24.7c-.4,6.5-1.4,11.6-2.9,15.3-1.6,3.7-3.6,6.4-6.2,7.9-2.6,1.6-5.7,2.6-9.5,3l1.2,10.6ZM1037.4,772.7h12.3v-43.4h-10.6l-1.7,8.6v34.8ZM1076.5,772.7h12.3v-48c0-8.3-1.7-14.3-5.2-18.2-3.5-3.8-8.3-5.8-14.4-5.8h-31.4v10.5h28.3c3.4,0,6,1,7.7,3,1.8,2,2.7,5.3,2.7,9.8v48.6ZM1013,745.8l12.2-2.6v-8.1c.1,0,.1-19.5.1-19.5l-1.5-15h-12.2l1.4,15v30.1ZM965.9,700.8v-19.8h-11.2v30.3h34.7l-21.5,61.4h12.3l21.5-60.5v-11.4h-35.8ZM885.6,774.7c7.9-.9,13.6-3.2,17.2-7,3.5-3.8,5.3-10,5.3-18.4v-38h15.7c3.4,0,6,1,7.7,3,1.8,2,2.6,5.3,2.6,9.8v48.6h12.3v-48c0-8.3-1.7-14.3-5.2-18.2-3.5-3.8-8.3-5.8-14.4-5.8h-31.1v50c0,4.8-.8,8.2-2.3,10.4-1.5,2.1-4.5,3.5-9,4l1.2,9.6ZM818.7,700.8v-19.8h-11.2v30.3h34.7l-21.5,61.4h12.3l21.5-60.5v-11.4h-35.8ZM786,772.7h12.3v-57l-1.5-15h-12.2l1.4,15v57ZM774.3,736.5c0-12.6-2.2-21.9-6.5-27.8-4.3-5.9-10.3-8.9-18-8.9s-8,1.3-11.3,4c-3.3,2.7-5.8,6.7-7.4,12.1l-5.2-15.1h-12.8l9,22.4-8.3,49.5h12.3l7.7-49c.8-3.9,2.3-7.1,4.7-9.4,2.3-2.3,5.4-3.5,9-3.5s8.4,2,11,6.1c2.6,4.1,3.9,10.7,3.9,20s-1.3,15.3-4,19.8c-2.7,4.5-7,6.8-12.8,6.8s-4.6-.3-7.5-1l-1.3,10.5c3.4.9,6.7,1.3,9.9,1.3,8.8,0,15.5-3.3,20.3-9.9,4.8-6.6,7.1-15.9,7.1-27.8M680.7,772.7h12.3v-46.5c0-6.4.8-11.4,2.5-15h8.6v-10.5h-51.4v10.5h31.1c-2.2,3.3-3.2,8.3-3.2,15v46.5ZM630.9,745.8l12.2-2.6v-8.1c.1,0,.1-19.5.1-19.5l-1.5-15h-12.2l1.4,15v30.1ZM540.5,798.3h12.3v-70.4h-10.6l-1.7,8.7v61.7ZM562.3,772.8c9.6-.3,16.9-4,22-10.9,5.1-6.9,7.9-16.6,8.4-29.2l1.6-22.8.5-9.2h-54v10.5h40.8l-1.7,24.7c-.4,6.5-1.4,11.6-2.9,15.3-1.6,3.7-3.6,6.4-6.2,7.9-2.6,1.6-5.7,2.6-9.5,3l1.2,10.6ZM523.9,762.2v-37.5c0-8.3-1.7-14.3-5.2-18.2s-8.3-5.8-14.4-5.8h-24.8v10.5h21.7c3.4,0,6,1,7.7,3,1.8,2,2.6,5.3,2.6,9.8v38.1h-32v10.5h52.3v-10.5h-7.9ZM435.2,700.8v-19.8h-11.2v30.3h34.7l-21.5,61.4h12.3l21.5-60.5v-11.4h-35.8ZM364.6,772.7h12.3v-43.4h-10.6l-1.7,8.6v34.8ZM403.7,772.7h12.3v-48c0-8.3-1.7-14.3-5.2-18.2s-8.3-5.8-14.4-5.8h-31.4v10.5h28.3c3.4,0,6,1,7.7,3,1.8,2,2.6,5.3,2.6,9.8v48.6Z"/>
    <path class="st3" d="M1060.6,657.7h31.4v-104.6h-27.1l-4.3,13.2v91.4ZM1101.6,619.5c18.7,0,31.7-6,39.1-18.1,7.4-12.1,11.6-28,12.5-47.7l1.4-23.6,1-21.9h-92.8v25.7h58.9l-1.7,29.4c-.6,10.6-2.4,18.2-5.4,22.8-3.1,4.6-8.2,7.2-15.5,7.7l2.4,25.7ZM1039.2,593.6v-49.2c0-12.4-2.7-21.6-8.2-27.5-5.5-5.9-12.8-8.8-22-8.8h-44.6v25.7h35.6c5.2,0,7.8,2.9,7.8,8.6v51.1h-43.4v25.7h85.9v-25.7h-11.1ZM903.4,508.2v-26.5h-28v52.2h48l-29.7,85.4h31.4l29.7-82.8v-28.4h-51.5ZM776.7,619.3h31.4v-65.7h-27.1l-4.3,12.9v52.8ZM833.5,619.3h31.5v-74.9c0-12.4-2.7-21.6-8.2-27.5-5.5-5.9-12.8-8.8-22-8.8h-56.7v25.7h47.7c5.2,0,7.8,2.9,7.8,8.6v76.8ZM679.1,508.2v-26.5h-28v52.2h48l-29.7,85.4h31.4l29.7-82.8v-28.4h-51.5ZM609.4,508.2v28.2c0,10.5-.3,18.9-.8,25.2-.5,6.3-1.7,11.6-3.5,16.1-1.8,4.5-4.7,7.9-8.5,10.2l-15.6-79.7h-31.5l18.5,87.2-25.7,5.4,4.3,27.1,41.5-8.8c16.6-3.7,28.6-10.4,36.1-20,7.5-9.6,12-20.9,13.7-33.9,1.6-13,2.5-32,2.6-56.9h-31.1ZM477.9,593.6v-59.7h18.8c5.2,0,7.8,2.9,7.8,8.6v51.1h-26.6ZM505.7,508.2h-59.3v111.2h89.5v-74.9c0-12.4-2.7-21.6-8.2-27.5-5.5-5.9-12.8-8.8-22-8.8"/>
  </g>
</svg>
